
  <svg xmlns="http://www.w3.org/2000/svg" viewBox="0 0 512 512">
    <defs>
      <linearGradient id="bg" x1="0" y1="0" x2="1" y2="1">
        <stop offset="0%" stop-color="#0f3d2e"/>
        <stop offset="100%" stop-color="#1d6b4c"/>
      </linearGradient>
      <linearGradient id="leaf" x1="0" y1="0" x2="1" y2="1">
        <stop offset="0%" stop-color="#cfe88e"/>
        <stop offset="100%" stop-color="#8fcf6a"/>
      </linearGradient>
      <filter id="shadow" x="-20%" y="-20%" width="140%" height="140%">
        <feDropShadow dx="0" dy="18" stdDeviation="18" flood-color="#0b2419" flood-opacity="0.22"/>
      </filter>
    </defs>
    <rect width="512" height="512" rx="120" fill="#f7f3e8"/>
    <g transform="translate(28 28)" filter="url(#shadow)">
      <rect x="0" y="0" width="456" height="456" rx="96" fill="url(#bg)"/>
      <circle cx="320" cy="112" r="64" fill="rgba(255,255,255,0.10)"/>
      <circle cx="116" cy="366" r="84" fill="rgba(255,255,255,0.08)"/>
      <path d="M122 270c64-106 162-148 242-156-10 29-27 58-49 82 41 5 74 24 91 61-47 16-93 14-136 0-23 20-50 32-86 33-25 0-43-6-62-20z" fill="rgba(255,255,255,0.12)"/>
      <path d="M244 126c20 2 37 14 46 33" stroke="url(#leaf)" stroke-width="22" stroke-linecap="round"/>
      <path d="M180 262c53-84 124-126 196-138-7 26-19 50-36 70 34 4 58 17 70 46-35 11-67 10-98 0-22 20-47 31-80 31-19 0-36-3-52-9z" fill="rgba(255,255,255,0.18)"/>
      <path d="M160 330c42 34 93 50 136 50 47 0 95-18 130-53" fill="none" stroke="#eff7e9" stroke-width="26" stroke-linecap="round" opacity="0.96"/>
      <path d="M140 350c32 40 78 64 116 68 50 5 114-12 160-53" fill="none" stroke="#d4efb7" stroke-width="14" stroke-linecap="round" opacity="0.9"/>
      <path d="M206 190c16 3 27 13 35 28" stroke="#eff7e9" stroke-width="14" stroke-linecap="round"/>
      <text x="265" y="310" text-anchor="middle" font-family="Arial, 'Segoe UI', sans-serif" font-size="168" font-weight="800" fill="#ffffff">?</text>
    </g>
  </svg>